{"title":"Superman.Unbound.2013.HDRip.x264.AC3-FooKaS","uid":8403775,"size":1533163663,"categoryP":"video","categoryS":"movies","magnet":"?xt=urn:btih:911013bcbedc53105306000de68feb7436dbbb75&amp;dn=Superman.Unbound.2013.HDRip.x264.AC3-FooKaS&amp;tr=udp%3A%2F%2Ftracker.openbittorrent.com%3A80&amp;tr=udp%3A%2F%2Fopen.demonii.com%3A1337&amp;tr=udp%3A%2F%2Ftracker.coppersurfer.tk%3A6969&amp;tr=udp%3A%2F%2Fexodus.desync.com%3A6969","seeders":2,"leechers":0,"uploader":"hdporn","files":3,"time":1366752232,"description":" &lt;a href=&quot;http://uppix.net/c/1/b/4ee0cdc160f486b1ff59d2b8a361b.jpg&quot; rel=&quot;nofollow&quot; target=&quot;_NEW&quot;&gt;http://uppix.net/c/1/b/4ee0cdc160f486b1ff59d2b8a361b.jpg&lt;/a&gt;\n\n\nSuperman Unbound 2013 HDRip x264 AC3-FooKaS\n\nFormat : Matroska\nFile size : 1.40 GiB\nDuration : 1h 15mn\nOverall bit rate : 2 662 Kbps\nEncoded date : UTC 2013-04-23 17:14:52\nWriting application : mkvmerge v6.1.0 ('Old Devil') built on Mar 2 2013 14:32:37\nWriting library : libebml v1.3.0 + libmatroska v1.4.0\n\nVideo\nFormat : AVC\nBit rate : 2 275 Kbps\nWidth : 720 pixels\nHeight : 400 pixels\nDisplay aspect ratio : 16:9\nFrame rate : 23.976 fps\nColor space : YUV\nChroma subsampling : 4:2:0\nBit depth : 8 bits\nScan type : Progressive\nBits/(Pixel*Frame) : 0.329\nStream size : 1.17 GiB (84%)\nWriting library : x264 core 130 r2273 b3065e6\nLanguage : English\n\n\nAudio\nID : 2\nFormat : AC-3\nFormat/Info : Audio Coding 3\nMode extension : CM (complete main)\nCodec ID : A_AC3\nDuration : 1h 15mn\nBit rate mode : Constant\nBit rate : 384 Kbps\nChannel(s) : 6 channels\nChannel positions : Front: L C R, Side: L R, LFE\nSampling rate : 48.0 KHz\nBit depth : 16 bits\nCompression mode : Lossy\nStream size : 207 MiB\nLanguage : English\n\nSubtitles............: English | Spanish |  French | Portuguese\n\n\nSCREENSHOTS:\n &lt;a href=&quot;\nhttp://uppix.net/e/8/0/e9ccd79941463ea0aa32d45edb330.png&quot; rel=&quot;nofollow&quot; target=&quot;_NEW&quot;&gt;\nhttp://uppix.net/e/8/0/e9ccd79941463ea0aa32d45edb330.png&lt;/a&gt;\n &lt;a href=&quot;\nhttp://uppix.net/7/0/a/4ff604f83938930ab7451430d2373.png&quot; rel=&quot;nofollow&quot; target=&quot;_NEW&quot;&gt;\nhttp://uppix.net/7/0/a/4ff604f83938930ab7451430d2373.png&lt;/a&gt;\n &lt;a href=&quot;\nhttp://uppix.net/8/e/4/8307b3ec630198f9c27d3a8ebf02b.png&quot; rel=&quot;nofollow&quot; target=&quot;_NEW&quot;&gt;\nhttp://uppix.net/8/e/4/8307b3ec630198f9c27d3a8ebf02b.png&lt;/a&gt;\n","torrent":{"xt":"urn:btih:911013bcbedc53105306000de68feb7436dbbb75","amp;dn":"Superman.Unbound.2013.HDRip.x264.AC3-FooKaS","amp;tr":["udp%3A%2F%2Ftracker.openbittorrent.com%3A80","udp%3A%2F%2Fopen.demonii.com%3A1337","udp%3A%2F%2Ftracker.coppersurfer.tk%3A6969","udp%3A%2F%2Fexodus.desync.com%3A6969"],"infoHash":"911013bcbedc53105306000de68feb7436dbbb75","infoHashBuffer":{"type":"Buffer","data":[145,16,19,188,190,220,83,16,83,6,0,13,230,143,235,116,54,219,187,117]},"announce":[],"urlList":[]}}